<svg xmlns="http://www.w3.org/2000/svg" viewBox="0 0 1200 800" role="img" aria-label="POS Reports mockup">
  <defs>
    <linearGradient id="bg" x1="0" y1="0" x2="1" y2="1">
      <stop offset="0" stop-color="#0b1328"/>
      <stop offset="1" stop-color="#151f3d"/>
    </linearGradient>
    <linearGradient id="accent" x1="0" y1="0" x2="1" y2="0">
      <stop offset="0" stop-color="#8b5cf6"/>
      <stop offset="0.5" stop-color="#22d3ee"/>
      <stop offset="1" stop-color="#f472b6"/>
    </linearGradient>
  </defs>
  <rect width="1200" height="800" rx="34" fill="url(#bg)"/>
  <rect x="58" y="58" width="1084" height="684" rx="28" fill="#0f1730" stroke="#29345a"/>
  <rect x="92" y="92" width="1016" height="84" rx="20" fill="#111b38"/>
  <rect x="92" y="198" width="330" height="540" rx="22" fill="#111b38"/>
  <rect x="448" y="198" width="660" height="540" rx="22" fill="#111b38"/>
  <circle cx="252" cy="360" r="110" fill="none" stroke="url(#accent)" stroke-width="28"/>
  <circle cx="252" cy="360" r="58" fill="#0f1730"/>
  <rect x="486" y="246" width="580" height="52" rx="16" fill="#1f2b4f"/>
  <rect x="486" y="322" width="580" height="52" rx="16" fill="#1f2b4f"/>
  <rect x="486" y="398" width="580" height="52" rx="16" fill="#1f2b4f"/>
  <rect x="486" y="474" width="580" height="52" rx="16" fill="#1f2b4f"/>
  <rect x="486" y="550" width="580" height="52" rx="16" fill="#1f2b4f"/>
  <rect x="486" y="246" width="350" height="52" rx="16" fill="url(#accent)" opacity="0.9"/>
</svg>
