<svg xmlns="http://www.w3.org/2000/svg" viewBox="0 0 1200 800" role="img" aria-label="POS Inventory mockup">
  <defs>
    <linearGradient id="bg" x1="0" y1="0" x2="1" y2="1">
      <stop offset="0" stop-color="#0b1328"/>
      <stop offset="1" stop-color="#151f3d"/>
    </linearGradient>
    <linearGradient id="accent" x1="0" y1="0" x2="1" y2="0">
      <stop offset="0" stop-color="#8b5cf6"/>
      <stop offset="0.5" stop-color="#22d3ee"/>
      <stop offset="1" stop-color="#f472b6"/>
    </linearGradient>
  </defs>
  <rect width="1200" height="800" rx="34" fill="url(#bg)"/>
  <rect x="60" y="60" width="1080" height="680" rx="28" fill="#0f1730" stroke="#29345a"/>
  <rect x="94" y="92" width="1012" height="78" rx="18" fill="url(#accent)" opacity="0.9"/>
  <rect x="94" y="194" width="1012" height="512" rx="22" fill="#111b38"/>
  <rect x="126" y="236" width="220" height="416" rx="18" fill="#182244"/>
  <rect x="372" y="236" width="220" height="416" rx="18" fill="#182244"/>
  <rect x="618" y="236" width="220" height="416" rx="18" fill="#182244"/>
  <rect x="864" y="236" width="210" height="416" rx="18" fill="#182244"/>
  <rect x="158" y="272" width="156" height="22" rx="8" fill="#2e3d69"/>
  <rect x="404" y="272" width="156" height="22" rx="8" fill="#2e3d69"/>
  <rect x="650" y="272" width="156" height="22" rx="8" fill="#2e3d69"/>
  <rect x="896" y="272" width="156" height="22" rx="8" fill="#2e3d69"/>
  <rect x="158" y="322" width="156" height="88" rx="16" fill="#8b5cf6" opacity="0.85"/>
  <rect x="404" y="322" width="156" height="88" rx="16" fill="#22d3ee" opacity="0.85"/>
  <rect x="650" y="322" width="156" height="88" rx="16" fill="#f472b6" opacity="0.85"/>
  <rect x="896" y="322" width="156" height="88" rx="16" fill="#8b5cf6" opacity="0.85"/>
  <rect x="158" y="438" width="156" height="160" rx="16" fill="#1f2b4f"/>
  <rect x="404" y="438" width="156" height="160" rx="16" fill="#1f2b4f"/>
  <rect x="650" y="438" width="156" height="160" rx="16" fill="#1f2b4f"/>
  <rect x="896" y="438" width="156" height="160" rx="16" fill="#1f2b4f"/>
</svg>
