<svg xmlns="http://www.w3.org/2000/svg" viewBox="0 0 1200 800" role="img" aria-label="POS Dashboard mockup">
  <defs>
    <linearGradient id="bg" x1="0" y1="0" x2="1" y2="1">
      <stop offset="0" stop-color="#091122"/>
      <stop offset="1" stop-color="#111b38"/>
    </linearGradient>
    <linearGradient id="accent" x1="0" y1="0" x2="1" y2="0">
      <stop offset="0" stop-color="#8b5cf6"/>
      <stop offset="0.5" stop-color="#22d3ee"/>
      <stop offset="1" stop-color="#f472b6"/>
    </linearGradient>
  </defs>
  <rect width="1200" height="800" rx="34" fill="url(#bg)"/>
  <rect x="48" y="48" width="1104" height="72" rx="20" fill="#0f1730" stroke="#2a355f"/>
  <rect x="70" y="68" width="120" height="32" rx="10" fill="url(#accent)" opacity="0.9"/>
  <rect x="220" y="68" width="180" height="32" rx="10" fill="#1b2747"/>
  <rect x="420" y="68" width="120" height="32" rx="10" fill="#1b2747"/>
  <rect x="560" y="68" width="120" height="32" rx="10" fill="#1b2747"/>
  <rect x="700" y="68" width="120" height="32" rx="10" fill="#1b2747"/>
  <rect x="70" y="150" width="300" height="580" rx="26" fill="#0f1730" stroke="#27325a"/>
  <rect x="398" y="150" width="732" height="580" rx="26" fill="#0f1730" stroke="#27325a"/>
  <rect x="98" y="182" width="244" height="120" rx="18" fill="url(#accent)" opacity="0.95"/>
  <rect x="98" y="326" width="244" height="120" rx="18" fill="#1b2747"/>
  <rect x="98" y="470" width="244" height="120" rx="18" fill="#1b2747"/>
  <rect x="430" y="182" width="200" height="104" rx="18" fill="#1b2747"/>
  <rect x="652" y="182" width="200" height="104" rx="18" fill="#1b2747"/>
  <rect x="874" y="182" width="200" height="104" rx="18" fill="#1b2747"/>
  <rect x="430" y="314" width="644" height="386" rx="22" fill="#111b38" stroke="#2a355f"/>
  <path d="M470 622 C550 550, 628 580, 700 520 S 860 498, 1030 430" fill="none" stroke="url(#accent)" stroke-width="12" stroke-linecap="round"/>
  <path d="M470 622 C550 550, 628 580, 700 520 S 860 498, 1030 430" fill="none" stroke="#22d3ee" stroke-width="4" stroke-linecap="round" opacity="0.65"/>
  <circle cx="470" cy="622" r="10" fill="#8b5cf6"/>
  <circle cx="700" cy="520" r="10" fill="#22d3ee"/>
  <circle cx="1030" cy="430" r="10" fill="#f472b6"/>
</svg>
