<svg xmlns="http://www.w3.org/2000/svg" viewBox="0 0 1200 800" role="img" aria-label="POS Sales mockup">
  <defs>
    <linearGradient id="bg" x1="0" y1="0" x2="1" y2="1">
      <stop offset="0" stop-color="#0b1328"/>
      <stop offset="1" stop-color="#151f3d"/>
    </linearGradient>
    <linearGradient id="accent" x1="0" y1="0" x2="1" y2="0">
      <stop offset="0" stop-color="#8b5cf6"/>
      <stop offset="0.5" stop-color="#22d3ee"/>
      <stop offset="1" stop-color="#f472b6"/>
    </linearGradient>
  </defs>
  <rect width="1200" height="800" rx="34" fill="url(#bg)"/>
  <rect x="58" y="58" width="1084" height="684" rx="28" fill="#0f1730" stroke="#29345a"/>
  <rect x="92" y="92" width="250" height="620" rx="22" fill="#111b38"/>
  <rect x="370" y="92" width="738" height="120" rx="22" fill="url(#accent)" opacity="0.92"/>
  <rect x="370" y="238" width="360" height="220" rx="22" fill="#111b38"/>
  <rect x="748" y="238" width="360" height="220" rx="22" fill="#111b38"/>
  <rect x="370" y="482" width="738" height="230" rx="22" fill="#111b38"/>
  <rect x="118" y="128" width="154" height="30" rx="10" fill="#233055"/>
  <rect x="118" y="180" width="154" height="30" rx="10" fill="#233055"/>
  <rect x="118" y="232" width="154" height="30" rx="10" fill="#233055"/>
  <rect x="118" y="284" width="154" height="30" rx="10" fill="#233055"/>
  <rect x="412" y="276" width="80" height="80" rx="20" fill="#8b5cf6"/>
  <rect x="512" y="276" width="80" height="80" rx="20" fill="#22d3ee"/>
  <rect x="612" y="276" width="80" height="80" rx="20" fill="#f472b6"/>
  <path d="M402 640 L520 570 L640 610 L770 520 L900 560 L1048 480" fill="none" stroke="url(#accent)" stroke-width="12" stroke-linecap="round"/>
</svg>
