<svg xmlns="http://www.w3.org/2000/svg" viewBox="0 0 64 64" role="img" aria-label="Meteor favicon">
  <defs>
    <linearGradient id="tail" x1="0" y1="0" x2="1" y2="1">
      <stop offset="0" stop-color="#22d3ee" stop-opacity="0.95"/>
      <stop offset="0.55" stop-color="#8b5cf6" stop-opacity="0.8"/>
      <stop offset="1" stop-color="#f472b6" stop-opacity="0.05"/>
    </linearGradient>
    <radialGradient id="rock" cx="38%" cy="35%" r="65%">
      <stop offset="0" stop-color="#ffe8c8"/>
      <stop offset="0.55" stop-color="#ffb36b"/>
      <stop offset="1" stop-color="#ff7a45"/>
    </radialGradient>
  </defs>

  <rect width="64" height="64" rx="14" fill="#070912"/>

  <path d="M6 50c12-2 20-8 30-18 8-8 13-17 20-27-3 12-8 21-16 30-10 11-20 16-34 18z" fill="url(#tail)"/>

  <circle cx="42" cy="22" r="11" fill="url(#rock)"/>
  <circle cx="38" cy="19" r="2" fill="#ffd8ab" opacity="0.9"/>
  <circle cx="46" cy="26" r="1.6" fill="#ff9f6a" opacity="0.8"/>

  <path d="M34 8l1.4 2.7L38 12l-2.6 1.3L34 16l-1.4-2.7L30 12l2.6-1.3z" fill="#67e8f9" opacity="0.92"/>
</svg>
