<svg xmlns="http://www.w3.org/2000/svg" viewBox="0 0 64 64" fill="none">
  <path d="M20 44c-2.5-2.5-4-5.8-4-9.4 0-7.5 6.2-13.6 13.9-13.6 1.8 0 3.6.3 5.2 1" stroke="#8b5cf6" stroke-width="3" stroke-linecap="round"/>
  <path d="M31 19c2.2-3 5.8-5 10-5 6.8 0 12.3 5.2 12.3 11.6 0 2.4-.8 4.7-2.1 6.6" stroke="#8b5cf6" stroke-width="3" stroke-linecap="round"/>
  <path d="M15 44c2.8 4.4 8 7.4 14.1 7.4 8.7 0 15.7-5.9 15.7-13.2 0-1.9-.4-3.8-1.3-5.4" stroke="#8b5cf6" stroke-width="3" stroke-linecap="round"/>
  <path d="M45 22c2.3 1.5 4.2 3.7 5.2 6.4" stroke="#8b5cf6" stroke-width="3" stroke-linecap="round"/>
  <circle cx="45" cy="46" r="4" fill="#8b5cf6" fill-opacity="0.45"/>
</svg>
