<svg xmlns="http://www.w3.org/2000/svg" viewBox="0 0 64 64" role="img" aria-label="Stripe icon">
  <defs>
    <linearGradient id="g" x1="0" y1="0" x2="1" y2="1">
      <stop offset="0" stop-color="#8b5cf6"/>
      <stop offset="1" stop-color="#22d3ee"/>
    </linearGradient>
  </defs>
  <rect width="64" height="64" rx="14" fill="#0b1120"/>
  <path d="M22 18h20c6 0 10 4 10 9 0 6-4 10-10 10H32c-2 0-4 2-4 4s2 4 4 4h18v8H30c-6 0-10-4-10-9 0-6 4-10 10-10h10c2 0 4-2 4-4s-2-4-4-4H22z" fill="url(#g)"/>
</svg>
